<svg xmlns="http://www.w3.org/2000/svg" viewBox="0 0 455 214"><defs><style>.fw{fill:#fff;}</style></defs><title>teleperformance</title><path class="fw" d="M236.57,15H221.33V2.86h43.26V15H249.36V66.35H236.57Z"/><path class="fw" d="M259.16,44.85c0-14.06,7.07-23,19.22-23,12.43,0,19.23,10,17.78,27.58h-24.4c1,6.35,4.81,8.89,11.07,8.89a27.85,27.85,0,0,0,10.7-1.91v9.07a28.88,28.88,0,0,1-12.34,2.27C267,67.8,259.16,59.09,259.16,44.85ZM285,41.41c0-6.17-1.81-9.53-6.43-9.53s-6.81,3.63-7.26,9.53Z"/><path class="fw" d="M314.19,66.35H302V.14h12.16Z"/><path class="fw" d="M319.6,44.58c0-14.06,7.07-22.94,19.22-22.94,12.43,0,19.23,10,17.78,27.57H332.2c1,6.35,4.81,8.89,11.07,8.89A27.85,27.85,0,0,0,354,56.19v9.07a28.87,28.87,0,0,1-12.33,2.27C327.4,67.53,319.6,58.82,319.6,44.58Zm25.85-3.44c0-6.17-1.82-9.53-6.45-9.53s-6.8,3.63-7.25,9.53Z"/><path class="fw" d="M258.91,139.76a12.94,12.94,0,0,1-10.16-4.44v23.22H236.6V95.05h10.88v4.44a13.18,13.18,0,0,1,11.16-5.62c11.7,0,16,10.7,16,22.95C274.6,130.24,269.7,139.76,258.91,139.76Zm-10.16-15c1.45,2.72,3.72,4.44,6.62,4.44,5.17,0,7.17-4.44,7.17-12.33s-2-12.34-7.17-12.34c-2.9,0-5.17,1.73-6.62,4.45Z"/><path class="fw" d="M278.27,116.82c0-14.06,7.07-22.95,19.23-22.95,12.42,0,19.23,10,17.78,27.57h-24.4c1,6.35,4.8,8.89,11.06,8.89a27.88,27.88,0,0,0,10.71-1.9v9.07a28.89,28.89,0,0,1-12.34,2.26C286.07,139.76,278.27,131.06,278.27,116.82Zm25.85-3.45c0-6.17-1.81-9.52-6.44-9.52s-6.8,3.63-7.26,9.52Z"/><path class="fw" d="M320.16,95.05H331v6.62c2.63-5.53,7.53-8.07,14.06-7.53v12.34c-5.81-.73-10.43,1.36-12.79,7.43v24.68H320.16Z"/><path class="fw" d="M355.2,105.57h-5.71V95.05h5.71V89.34c0-11.34,7.17-15.42,15-15.42a19.43,19.43,0,0,1,7.89,1.45v10a12.46,12.46,0,0,0-4.9-.9c-3.45,0-5.8,1.63-5.8,5.35v5.26h8.7v10.52h-8.7v33H355.2Z"/><path class="fw" d="M416.81,116.82c0,14.33-7,22.94-19.5,22.94s-19.59-8.61-19.59-22.94,7-22.95,19.59-22.95S416.81,102.4,416.81,116.82Zm-26.84,0c0,8,2.08,12.33,7.34,12.33s7.26-4.35,7.26-12.33-2.09-12.43-7.26-12.43S390,108.84,390,116.82Z"/><path class="fw" d="M421.18,95.05h10.89v6.62c2.63-5.53,7.53-8.07,14.06-7.53v12.34c-5.81-.73-10.43,1.36-12.79,7.43v24.68H421.18Z"/><path class="fw" d="M293.65,181.93v30.75h-12V184.47c0-3.53-1.63-5.26-4.53-5.26-2.54,0-4.54,1.45-6.08,3.9v29.57H259.18V184.47c0-3.53-1.72-5.26-4.53-5.26-2.45,0-4.54,1.45-6.08,4.08v29.39h-12V169.15h10.88v4.08a13.42,13.42,0,0,1,11-5.26c4.71,0,8.25,2,10.33,5.26a14.58,14.58,0,0,1,11.8-5.26C289.38,168,293.65,174.13,293.65,181.93Z"/><path class="fw" d="M338.52,204v8.53a19.63,19.63,0,0,1-5.8.82c-3.36,0-6.44-1-8.26-3.36a18,18,0,0,1-11.7,3.9c-7.43,0-13.87-4.35-13.87-13.51,0-9.35,6.8-14,16.5-14a32.72,32.72,0,0,1,7,.81v-2.35c0-3.54-1.63-6.62-7.62-6.62a34.1,34.1,0,0,0-13.15,2.72V170.51A44,44,0,0,1,315.94,168c12.06,0,18.32,5.35,18.32,17.77v15.51c0,2.18,1.09,2.91,2.81,2.91A8,8,0,0,0,338.52,204Zm-16.14-.9v-8.35a18.57,18.57,0,0,0-4.36-.54c-4.44,0-7.43,1.45-7.43,5.8,0,3.9,2.35,5.63,5.26,5.63A9,9,0,0,0,322.38,203.07Z"/><path class="fw" d="M343,169.15H353.9v4.08A14.54,14.54,0,0,1,365.69,168c6.89,0,13.15,4.8,13.15,13.87v30.84H366.68V184.47c0-3.71-1.81-5.26-5-5.26a7.41,7.41,0,0,0-6.53,4.36v29.11H343Z"/><path class="fw" d="M383.91,191.28c0-15,8.71-23.31,20.68-23.31a20.37,20.37,0,0,1,9.52,2v10.25a15.72,15.72,0,0,0-7.62-1.81c-6.35,0-10.34,4.62-10.34,12.51s3.54,12.34,9.8,12.34a20.27,20.27,0,0,0,8.62-1.82V212a24.55,24.55,0,0,1-10.53,1.9C392.34,213.86,383.91,205.79,383.91,191.28Z"/><path class="fw" d="M417.8,190.91c0-14.06,7.08-22.94,19.23-22.94,12.43,0,19.23,10,17.78,27.57h-24.4c1,6.35,4.81,8.89,11.06,8.89a27.9,27.9,0,0,0,10.71-1.91v9.07a28.73,28.73,0,0,1-12.34,2.27C425.6,213.86,417.8,205.15,417.8,190.91Zm25.85-3.44c0-6.17-1.81-9.53-6.44-9.53s-6.8,3.63-7.25,9.53Z"/><path class="fw" d="M128.25,2.86H7.35A7.35,7.35,0,0,0,0,10.21v36c0,3,.58,4.67,2,6.08C12.34,62.67,33.44,83.76,43.79,94.11a.92.92,0,0,0,1.64-.59V50.87a1.64,1.64,0,0,0-1.64-1.63h-33a3.9,3.9,0,0,1-3.89-3.9V13.59A3.89,3.89,0,0,1,10.74,9.7H121.57a3.89,3.89,0,0,1,3.9,3.89V45.35a3.89,3.89,0,0,1-3.89,3.89h-33a1.64,1.64,0,0,0-1.64,1.64V174.57A3.89,3.89,0,0,1,83,178.46H50.15a1,1,0,0,0-.83,1.68l29,29a11,11,0,0,0,7.84,3.63h31.56a5.41,5.41,0,0,0,5.41-5.41V133.69a1.65,1.65,0,0,1,1.64-1.64h3.46c35.47,0,69.91-21.63,69.91-64.84C198.16,28.74,171.65,2.86,128.25,2.86Z"/></svg>